<svg xmlns="http://www.w3.org/2000/svg" width="18" height="25"><path d="M5.543 8.235c-.945.557-.492 1.81.07 3.035.01.06 2.73 4.621 2.754 4.637 1.406 1.898 2.168 2.772 3.072 2.241l3.826 6.445c-1.083.666-6.482 1.074-12.156-8.756C-2.277 6.509.6 2.392 1.617 1.633zm12.052 15.002c.002.002-1.83 1.076-1.83 1.076l-3.835-6.462 1.83-1.079a.836.836 0 011.143.291l2.989 5.023-.001.005a.83.83 0 01-.292 1.144zM7.874 6.866c-.001.003-1.83 1.075-1.83 1.075L2.121 1.336l1.83-1.08a.835.835 0 011.143.292L8.17 5.716l-.001.006a.828.828 0 01-.295 1.14z"/></svg>