<svg xmlns="http://www.w3.org/2000/svg" width="60" height="66" viewBox="0 0 60 66"><defs><clipPath id="5ue4a"><path fill="#fff" d="M40.123 8.932l17.812 17.703a6.924 6.924 0 0 1 0 9.834L30.722 63.515a6.978 6.978 0 0 1-3.592 1.906 7.005 7.005 0 0 1-2.88.583L7.283 65.85C3.378 65.814.183 62.64.148 58.76l-.156-16.865a6.858 6.858 0 0 1 2.61-5.469c.13-.153.268-.303.413-.447L30.227 8.932a7.028 7.028 0 0 1 9.896 0zM9.9 48.766a4.847 4.847 0 0 0 0 6.884 4.92 4.92 0 0 0 6.926 0 4.847 4.847 0 0 0 0-6.884 4.92 4.92 0 0 0-6.926 0z"/></clipPath><clipPath id="5ue4b"><path fill="#fff" d="M15.219 58.329S4.023 48.245 4.023 27.035 8.921 2 11.02 2c2.1 0 5.948 4.172 6.298 21.558"/></clipPath></defs><g><g><path fill="none" stroke="#000" stroke-miterlimit="20" stroke-width="6" d="M40.123 8.932l17.812 17.703a6.924 6.924 0 0 1 0 9.834L30.722 63.515a6.978 6.978 0 0 1-3.592 1.906 7.005 7.005 0 0 1-2.88.583L7.283 65.85C3.378 65.814.183 62.64.148 58.76l-.156-16.865a6.858 6.858 0 0 1 2.61-5.469c.13-.153.268-.303.413-.447L30.227 8.932a7.028 7.028 0 0 1 9.896 0zM9.9 48.766a4.847 4.847 0 0 0 0 6.884 4.92 4.92 0 0 0 6.926 0 4.847 4.847 0 0 0 0-6.884 4.92 4.92 0 0 0-6.926 0z" clip-path="url(&quot;#5ue4a&quot;)"/></g><g><path fill="none" stroke="#000" stroke-miterlimit="20" stroke-width="6" d="M15.219 58.329v0S4.023 48.245 4.023 27.035 8.921 2 11.02 2c2.1 0 5.948 4.172 6.298 21.558" clip-path="url(&quot;#5ue4b&quot;)"/></g></g></svg>