<svg xmlns="http://www.w3.org/2000/svg" width="49" height="70"><defs><clipPath id="a"><path fill="#fff" d="M16.416 21.636a5.795 5.795 0 011.457 2.358 5.96 5.96 0 012.731-.658 5.95 5.95 0 012.721.652 5.795 5.795 0 011.46-2.37 5.908 5.908 0 012.392-1.435 5.743 5.743 0 01-.667-2.693c0-.963.237-1.872.656-2.672a5.908 5.908 0 01-2.38-1.433 5.795 5.795 0 01-1.46-2.369 5.961 5.961 0 01-2.722.652 5.96 5.96 0 01-2.731-.657 5.795 5.795 0 01-1.457 2.357 5.908 5.908 0 01-2.403 1.44c.422.803.661 1.715.661 2.682 0 .975-.243 1.895-.672 2.703a5.908 5.908 0 012.414 1.443zM8.047 5.118c1.872-1.846 4.686-2.197 6.916-1.052C15.723 1.708 17.961 0 20.604 0c2.648 0 4.89 1.714 5.645 4.077 2.229-1.137 5.037-.785 6.906 1.058a5.775 5.775 0 011.078 6.797c2.386.752 4.113 2.956 4.113 5.558 0 2.606-1.733 4.812-4.124 5.561a5.775 5.775 0 01-1.067 6.818c-1.87 1.843-4.677 2.195-6.905 1.058-.757 2.364-2.998 4.077-5.646 4.077-2.643 0-4.881-1.708-5.64-4.066-2.23 1.145-5.045.794-6.917-1.051a5.775 5.775 0 01-1.062-6.829c-2.403-.742-4.147-2.954-4.147-5.568 0-2.61 1.739-4.82 4.136-5.565a5.775 5.775 0 011.073-6.808z"/></clipPath><clipPath id="b"><path fill="#fff" d="M20.592 6.996c5.88 0 10.647 4.701 10.647 10.5 0 5.8-4.767 10.502-10.647 10.502S9.946 23.297 9.946 17.497 14.712 6.996 20.592 6.996z"/></clipPath><clipPath id="c"><path fill="#fff" d="M21.47 56.695l-1.045-1.044L34.37 41.824l1.045 1.045z"/></clipPath><clipPath id="d"><path fill="#fff" d="M21.631 55.115l-1.045 1.744L3.153 39.576l1.045-1.744z"/></clipPath><clipPath id="e"><path fill="#fff" d="M48.996 29.947s-.984 14.419-5.24 18.638c-4.254 4.218-10.74 4.629-14.484.916-3.744-3.712-3.33-10.141.925-14.36 4.255-4.218 18.799-5.194 18.799-5.194z"/></clipPath><clipPath id="f"><path fill="#fff" d="M-.002 36.398s.72 10.51 3.837 13.585c3.117 3.075 7.867 3.374 10.61.668 2.743-2.706 2.44-7.392-.677-10.467s-13.77-3.786-13.77-3.786z"/></clipPath></defs><path fill="#fff" d="M19.914 33.325h2.066V70h-2.066z"/><path fill="none" stroke="#fff" stroke-miterlimit="20" stroke-width="6" d="M16.416 21.636a5.795 5.795 0 011.457 2.358 5.96 5.96 0 012.731-.658 5.95 5.95 0 012.721.652 5.795 5.795 0 011.46-2.37 5.908 5.908 0 012.392-1.435 5.743 5.743 0 01-.667-2.693c0-.963.237-1.872.656-2.672a5.908 5.908 0 01-2.38-1.433 5.795 5.795 0 01-1.46-2.369 5.961 5.961 0 01-2.722.652 5.96 5.96 0 01-2.731-.657 5.795 5.795 0 01-1.457 2.357 5.908 5.908 0 01-2.403 1.44c.422.803.661 1.715.661 2.682 0 .975-.243 1.895-.672 2.703a5.908 5.908 0 012.414 1.443zM8.047 5.118c1.872-1.846 4.686-2.197 6.916-1.052C15.723 1.708 17.961 0 20.604 0c2.648 0 4.89 1.714 5.645 4.077 2.229-1.137 5.037-.785 6.906 1.058a5.775 5.775 0 011.078 6.797c2.386.752 4.113 2.956 4.113 5.558 0 2.606-1.733 4.812-4.124 5.561a5.775 5.775 0 01-1.067 6.818c-1.87 1.843-4.677 2.195-6.905 1.058-.757 2.364-2.998 4.077-5.646 4.077-2.643 0-4.881-1.708-5.64-4.066-2.23 1.145-5.045.794-6.917-1.051a5.775 5.775 0 01-1.062-6.829c-2.403-.742-4.147-2.954-4.147-5.568 0-2.61 1.739-4.82 4.136-5.565a5.775 5.775 0 011.073-6.808z" clip-path="url(&quot;#a&quot;)"/><path fill="none" stroke="#fff" stroke-miterlimit="20" stroke-width="6" d="M20.592 6.996c5.88 0 10.647 4.701 10.647 10.5 0 5.8-4.767 10.502-10.647 10.502S9.946 23.297 9.946 17.497 14.712 6.996 20.592 6.996z" clip-path="url(&quot;#b&quot;)"/><path fill="none" stroke="#fff" stroke-miterlimit="20" stroke-width="6" d="M21.47 56.695v0l-1.045-1.044v0L34.37 41.824v0l1.045 1.045v0z" clip-path="url(&quot;#c&quot;)"/><path fill="none" stroke="#fff" stroke-miterlimit="20" stroke-width="6" d="M21.631 55.115v0l-1.045 1.744v0L3.153 39.576v0l1.045-1.744v0z" clip-path="url(&quot;#d&quot;)"/><path fill="none" stroke="#fff" stroke-miterlimit="20" stroke-width="6" d="M48.996 29.947v0s-.984 14.419-5.24 18.638c-4.254 4.218-10.74 4.629-14.484.916-3.744-3.712-3.33-10.141.925-14.36 4.255-4.218 18.799-5.194 18.799-5.194z" clip-path="url(&quot;#e&quot;)"/><path fill="none" stroke="#fff" stroke-miterlimit="20" stroke-width="6" d="M-.002 36.398v0s.72 10.51 3.837 13.585c3.117 3.075 7.867 3.374 10.61.668 2.743-2.706 2.44-7.392-.677-10.467s-13.77-3.786-13.77-3.786z" clip-path="url(&quot;#f&quot;)"/></svg>