<svg xmlns="http://www.w3.org/2000/svg" width="59" height="69"><defs><clipPath id="a"><path fill="#fff" d="M8.285 51.744c-9.726-9.731-9.726-25.509 0-35.24C23.774 1.006 59 1 59 1s-.007 35.246-15.496 50.745c-9.726 9.73-25.494 9.73-35.22 0z"/></clipPath><clipPath id="b"><path fill="#fff" d="M3.937 68.6s-5.88-47.184 54.329-66.865"/></clipPath><clipPath id="c"><path fill="#fff" d="M9.81 44.352v-.735H8.342V24.513H9.81v18.37h28.633v1.469zm8.81-16.165v-.735h-.734V13.49h1.468v13.226h24.962v1.47zM34.772 14.96v-.735h-.734V7.613h1.468v5.878h15.418v1.47z"/></clipPath></defs><path fill="none" stroke="#000" stroke-miterlimit="20" stroke-width="6" d="M8.285 51.744c-9.726-9.731-9.726-25.509 0-35.24C23.774 1.006 59 1 59 1v0s-.007 35.246-15.496 50.745c-9.726 9.73-25.494 9.73-35.22 0z" clip-path="url(&quot;#a&quot;)"/><path fill="none" stroke="#000" stroke-miterlimit="20" stroke-width="6" d="M3.937 68.6s-5.88-47.184 54.329-66.865" clip-path="url(&quot;#b&quot;)"/><path fill="none" stroke="#000" stroke-miterlimit="20" stroke-width="6" d="M9.81 44.352v-.735H8.342V24.513H9.81v18.37h28.633v1.469zm8.81-16.165v-.735h-.734V13.49h1.468v13.226h24.962v1.47zM34.772 14.96v-.735h-.734V7.613h1.468v5.878h15.418v1.47z" clip-path="url(&quot;#c&quot;)"/></svg>