<svg xmlns="http://www.w3.org/2000/svg" width="60" height="66"><defs><clipPath id="a"><path fill="#fff" d="M40.123 8.932l17.812 17.703a6.924 6.924 0 010 9.834L30.722 63.515a6.978 6.978 0 01-3.592 1.906 7.005 7.005 0 01-2.88.583L7.283 65.85c-3.905-.036-7.1-3.21-7.135-7.09l-.156-16.865a6.858 6.858 0 012.61-5.469c.13-.153.268-.303.413-.447L30.227 8.932a7.028 7.028 0 019.896 0zM9.9 48.766a4.847 4.847 0 000 6.884 4.92 4.92 0 006.926 0 4.847 4.847 0 000-6.884 4.92 4.92 0 00-6.926 0z"/></clipPath><clipPath id="b"><path fill="#fff" d="M15.219 58.329S4.023 48.245 4.023 27.035 8.921 2 11.02 2c2.1 0 5.948 4.172 6.298 21.558"/></clipPath></defs><path fill="none" stroke="#000" stroke-miterlimit="20" stroke-width="6" d="M40.123 8.932l17.812 17.703a6.924 6.924 0 010 9.834L30.722 63.515a6.978 6.978 0 01-3.592 1.906 7.005 7.005 0 01-2.88.583L7.283 65.85c-3.905-.036-7.1-3.21-7.135-7.09l-.156-16.865a6.858 6.858 0 012.61-5.469c.13-.153.268-.303.413-.447L30.227 8.932a7.028 7.028 0 019.896 0zM9.9 48.766a4.847 4.847 0 000 6.884 4.92 4.92 0 006.926 0 4.847 4.847 0 000-6.884 4.92 4.92 0 00-6.926 0z" clip-path="url(&quot;#a&quot;)"/><path fill="none" stroke="#000" stroke-miterlimit="20" stroke-width="6" d="M15.219 58.329v0S4.023 48.245 4.023 27.035 8.921 2 11.02 2c2.1 0 5.948 4.172 6.298 21.558" clip-path="url(&quot;#b&quot;)"/></svg>